<svg width="495" height="195" viewBox="0 0 495 195" xmlns="http://www.w3.org/2000/svg" role="img" aria-label="Most Used Languages">
  <defs>
    <linearGradient id="tg2" x1="0" y1="0" x2="1" y2="0">
      <stop offset="0%" stop-color="#7C5CFF"/><stop offset="100%" stop-color="#00D4FF"/>
    </linearGradient>
    <clipPath id="barclip"><rect x="24" y="62" width="447" height="14" rx="7"/></clipPath>
  </defs>
  <rect x="1" y="1" width="493" height="193" rx="12" fill="#0D1117" stroke="#7C5CFF" stroke-opacity="0.35" stroke-width="1.5"/>
  <text x="24" y="38" font-family="Segoe UI,Helvetica Neue,Arial,sans-serif" font-size="18" font-weight="800" fill="url(#tg2)">📊 Most Used Languages</text>
  <g clip-path="url(#barclip)"><rect x="24.0" y="62" width="288.0" height="14" fill="#3178c6"/><rect x="312.0" y="62" width="52.5" height="14" fill="#dea584"/><rect x="364.6" y="62" width="38.9" height="14" fill="#f1e05a"/><rect x="403.5" y="62" width="33.5" height="14" fill="#e34c26"/><rect x="437.0" y="62" width="28.1" height="14" fill="#563d7c"/><rect x="465.1" y="62" width="5.9" height="14" fill="#3572A5"/></g>
  <circle cx="30" cy="102" r="5" fill="#3178c6"/>
  <text x="44" y="106" font-family="Segoe UI,Helvetica Neue,Arial,sans-serif" font-size="13" font-weight="600" fill="#FFFFFF">TypeScript</text>
  <text x="224" y="106" font-family="Segoe UI,Helvetica Neue,Arial,sans-serif" font-size="12" fill="#8B949E">63.6%</text>
  <circle cx="258" cy="102" r="5" fill="#dea584"/>
  <text x="272" y="106" font-family="Segoe UI,Helvetica Neue,Arial,sans-serif" font-size="13" font-weight="600" fill="#FFFFFF">Rust</text>
  <text x="452" y="106" font-family="Segoe UI,Helvetica Neue,Arial,sans-serif" font-size="12" fill="#8B949E">11.6%</text>
  <circle cx="30" cy="132" r="5" fill="#f1e05a"/>
  <text x="44" y="136" font-family="Segoe UI,Helvetica Neue,Arial,sans-serif" font-size="13" font-weight="600" fill="#FFFFFF">JavaScript</text>
  <text x="224" y="136" font-family="Segoe UI,Helvetica Neue,Arial,sans-serif" font-size="12" fill="#8B949E">8.6%</text>
  <circle cx="258" cy="132" r="5" fill="#e34c26"/>
  <text x="272" y="136" font-family="Segoe UI,Helvetica Neue,Arial,sans-serif" font-size="13" font-weight="600" fill="#FFFFFF">HTML</text>
  <text x="452" y="136" font-family="Segoe UI,Helvetica Neue,Arial,sans-serif" font-size="12" fill="#8B949E">7.4%</text>
  <circle cx="30" cy="162" r="5" fill="#563d7c"/>
  <text x="44" y="166" font-family="Segoe UI,Helvetica Neue,Arial,sans-serif" font-size="13" font-weight="600" fill="#FFFFFF">CSS</text>
  <text x="224" y="166" font-family="Segoe UI,Helvetica Neue,Arial,sans-serif" font-size="12" fill="#8B949E">6.2%</text>
  <circle cx="258" cy="162" r="5" fill="#3572A5"/>
  <text x="272" y="166" font-family="Segoe UI,Helvetica Neue,Arial,sans-serif" font-size="13" font-weight="600" fill="#FFFFFF">Python</text>
  <text x="452" y="166" font-family="Segoe UI,Helvetica Neue,Arial,sans-serif" font-size="12" fill="#8B949E">1.3%</text>
  <text x="471" y="184" text-anchor="end" font-family="Segoe UI,Helvetica Neue,Arial,sans-serif" font-size="8" fill="#8B949E" opacity="0.7">by bytes of code • auto-updated</text>
</svg>